<?xml version="1.0" encoding="iso-8859-1"?>
<!-- Generator: Adobe Illustrator 19.0.0, SVG Export Plug-In . SVG Version: 6.00 Build 0)  -->
<svg version="1.1" id="Capa_1" xmlns="http://www.w3.org/2000/svg" xmlns:xlink="http://www.w3.org/1999/xlink" x="0px" y="0px"
	 viewBox="0 0 511.998 511.998" style="enable-background:new 0 0 511.998 511.998;" xml:space="preserve">
<g>
	<g>
		<path fill="#4B74FF" d="M330.006,243.619c-4.048-1.19-8.288,1.122-9.476,5.166c-6.265,21.281-18.967,39.553-36.731,52.841
			c-17.764,13.288-38.88,20.312-61.064,20.312h-74.972v-32.884c0-4.215-3.416-7.631-7.631-7.631s-7.631,3.417-7.631,7.631v39.354
			c-0.972,2.704-5.038,11.365-17.114,10.985c-4.186-0.143-7.737,3.171-7.871,7.384c-0.135,4.213,3.171,7.736,7.384,7.872
			c0.434,0.014,0.864,0.021,1.288,0.021c15.823,0,24.923-9.494,29.069-17.468h77.48c25.505,0,49.782-8.075,70.205-23.352
			c20.424-15.277,35.026-36.285,42.229-60.752C336.361,249.052,334.049,244.81,330.006,243.619z"/>
	</g>
</g>
<g>
	<g>
		<path fill="#4B74FF" d="M363.967,159.249h-1.755v-43.57c0-17.379-14.14-31.518-31.518-31.518H296.17c-36.405,0-66.023,29.619-66.023,66.024
			v43.764c0,22.634,18.415,41.049,41.049,41.049h92.771c20.884,0,37.874-16.991,37.874-37.875
			C401.841,176.24,384.851,159.249,363.967,159.249z M363.967,219.736h-92.771c-14.219,0-25.786-11.567-25.786-25.786v-43.764
			c0-27.99,22.771-50.761,50.761-50.761h34.524c8.962,0,16.254,7.293,16.254,16.255v43.57h-24.092c-4.216,0-7.631,3.417-7.631,7.631
			s3.416,7.631,7.631,7.631h31.723h9.387c12.468,0,22.612,10.144,22.612,22.612C386.578,209.592,376.434,219.736,363.967,219.736z"
			/>
	</g>
</g>
<g>
	<g>
		<path fill="#4B74FF" d="M194.071,148.845l-40.617-11.815c-4.047-1.177-8.283,1.149-9.459,5.197c-1.177,4.047,1.149,8.282,5.195,9.459l20.008,5.82
			v12.511c0,4.214,3.416,7.63,7.631,7.63c4.216,0,7.631-3.417,7.631-7.631v-8.072l5.346,1.555c0.711,0.208,1.429,0.306,2.136,0.306
			c3.306,0,6.353-2.166,7.323-5.502C200.444,154.257,198.118,150.022,194.071,148.845z"/>
	</g>
</g>
<g>
	<g>
		<path fill="#4B74FF" d="M324.108,66.316c-9.36-19.559-23.972-36.109-42.251-47.861C263.078,6.382,241.3,0,218.88,0
			c-30.924,0-60.066,11.989-82.059,33.76c-21.975,21.763-34.238,50.791-34.532,81.735l-0.223,23.845l-19.018,10.059
			c-3.725,1.971-5.149,6.589-3.178,10.314c1.37,2.588,4.015,4.065,6.753,4.065c1.203,0,2.424-0.286,3.561-0.887l11.719-6.199
			l-0.687,73.386c-0.019,2.036,0.777,3.996,2.21,5.442c1.433,1.447,3.385,2.261,5.421,2.261h23.56
			c-0.885,10.128-9.399,18.103-19.752,18.103c-4.216,0-7.631,3.417-7.631,7.631s3.416,7.631,7.631,7.631
			c11.112,0,21.035-5.19,27.472-13.274c6.437,8.083,16.361,13.274,27.473,13.274c4.216,0,7.631-3.417,7.631-7.631
			s-3.416-7.631-7.631-7.631c-10.94,0-19.842-8.9-19.842-19.841c0-1.045-0.211-2.04-0.591-2.947c0.38-0.907,0.591-1.902,0.591-2.947
			c0-4.215-3.416-7.631-7.631-7.631h-23.576l1-106.878c0.254-26.893,10.912-52.121,30.007-71.033
			c19.116-18.923,44.445-29.343,71.32-29.343c19.488,0,38.412,5.544,54.724,16.031c15.897,10.22,28.601,24.609,36.739,41.612
			c1.819,3.802,6.377,5.407,10.178,3.589C324.322,74.675,325.928,70.118,324.108,66.316z"/>
	</g>
</g>
<g>
	<g>
		<path fill="#4B74FF" d="M405.304,372.766c-3.613-2.166-8.301-0.996-10.47,2.62c-2.167,3.614-0.994,8.302,2.62,10.469
			c9.26,5.553,20.297,14.367,20.297,24.828c0,24.792-63.842,52.417-155.452,52.417c-91.611,0-155.453-27.624-155.453-52.417
			c0-17.59,31.731-35.778,78.956-45.26c4.132-0.829,6.809-4.852,5.98-8.985c-0.83-4.132-4.844-6.81-8.985-5.98
			c-57.115,11.467-91.214,33.98-91.214,60.223v33.636c0,19.471,18.736,37.094,52.758,49.622
			c31.625,11.646,73.517,18.058,117.959,18.058c44.437,0,86.328-6.413,117.954-18.058c34.024-12.528,52.762-30.15,52.762-49.622
			v-33.634C433.014,400.966,428.206,386.5,405.304,372.766z M417.752,444.32c-0.001,24.792-63.844,52.417-155.454,52.417
			c-91.611,0-155.453-27.625-155.453-52.417v-4.732c8.88,7.806,21.495,14.825,37.495,20.716
			c31.625,11.645,73.517,18.058,117.959,18.058c44.437,0,86.328-6.413,117.954-18.058c16.001-5.891,28.618-12.91,37.499-20.718
			V444.32z"/>
	</g>
</g>
<g>
	<g>
		<path fill="#4B74FF" d="M377.407,360.042c-10.559-3.71-22.349-6.895-35.042-9.467c-4.123-0.835-8.159,1.833-8.995,5.964
			c-0.835,4.131,1.835,8.159,5.965,8.995c12.008,2.433,23.115,5.431,33.013,8.908c0.836,0.294,1.69,0.433,2.53,0.433
			c3.149,0,6.097-1.964,7.2-5.104C383.475,365.795,381.384,361.439,377.407,360.042z"/>
	</g>
</g>
<g>
	<g>
		<path fill="#4B74FF" d="M317.81,301.442c-4.216,0-7.631,3.417-7.631,7.631v90.359c-29.92,15.139-65.849,15.139-95.759,0v-50.092
			c-0.001-4.215-3.417-7.631-7.632-7.631s-7.631,3.417-7.631,7.631v54.67c0,2.761,1.491,5.306,3.899,6.657
			c18.054,10.124,38.539,15.476,59.24,15.476s41.188-5.351,59.247-15.476c2.407-1.35,3.899-3.896,3.899-6.657v-94.937
			C325.441,304.859,322.025,301.442,317.81,301.442z"/>
	</g>
</g>
<g>
</g>
<g>
</g>
<g>
</g>
<g>
</g>
<g>
</g>
<g>
</g>
<g>
</g>
<g>
</g>
<g>
</g>
<g>
</g>
<g>
</g>
<g>
</g>
<g>
</g>
<g>
</g>
<g>
</g>
</svg>
