<?xml version="1.0" encoding="iso-8859-1"?>
<!-- Generator: Adobe Illustrator 19.0.0, SVG Export Plug-In . SVG Version: 6.00 Build 0)  -->
<svg version="1.1" id="Capa_1" xmlns="http://www.w3.org/2000/svg" xmlns:xlink="http://www.w3.org/1999/xlink" x="0px" y="0px"
	 viewBox="0 0 469.333 469.333" style="enable-background:new 0 0 469.333 469.333;" xml:space="preserve">
<g>
	<g>
		<path fill="#4B74FF" d="M415.147,0H292.48c-11.588,0.015-23.015,2.713-33.387,7.883l-24.427,12.192L210.283,7.883
			C199.911,2.713,188.484,0.015,176.896,0H54.187c-6.36,0.006-11.514,5.16-11.52,11.52v296.96c0.006,6.36,5.16,11.514,11.52,11.52
			h122.667c8.275,0.012,16.435,1.939,23.84,5.632l29.205,14.635c0.149,0.075,0.331,0,0.491,0.107c2.686,1.344,5.848,1.344,8.533,0
			c0.16-0.064,0.341,0,0.491-0.107l29.163-14.581c7.407-3.714,15.575-5.661,23.861-5.685v-21.333
			c-11.588,0.015-23.016,2.713-33.387,7.883l-13.717,6.859V38.592l23.264-11.627c7.405-3.693,15.565-5.62,23.84-5.632h112.896V128
			h21.333V11.52C426.661,5.16,421.507,0.006,415.147,0z M224,313.408l-13.717-6.859c-10.371-5.169-21.799-7.868-33.387-7.883H64
			V21.333h112.896c8.275,0.012,16.435,1.939,23.84,5.632L224,38.592V313.408z"/>
	</g>
</g>
<g>
	<g>
		<path fill="#4B74FF" d="M279.851,330.667c-12.129-0.037-23.227,6.82-28.619,17.685L249.408,352h-29.483l-1.824-3.648
			c-5.392-10.865-16.489-17.723-28.619-17.685H21.333v-288H32V21.333H10.667C4.776,21.333,0,26.109,0,32v309.333
			C0,347.224,4.776,352,10.667,352h178.816c4.044-0.016,7.744,2.273,9.536,5.899l4.768,9.536c1.807,3.617,5.504,5.901,9.547,5.899
			H256c4.043,0.002,7.74-2.282,9.547-5.899l4.768-9.536c1.792-3.625,5.492-5.914,9.536-5.899h50.816v-21.333H279.851z"/>
	</g>
</g>
<g>
	<g>
		<path fill="#4B74FF" d="M458.667,21.333h-21.333v21.333H448v106.667h21.333V32C469.333,26.109,464.558,21.333,458.667,21.333z"/>
	</g>
</g>
<g>
	<g>
		<rect fill="#4B74FF" x="85.333" y="42.667" width="106.667" height="21.333"/>
	</g>
</g>
<g>
	<g>
		<rect fill="#4B74FF" x="85.333" y="85.333" width="106.667" height="21.333"/>
	</g>
</g>
<g>
	<g>
		<rect fill="#4B74FF" x="85.333" y="128" width="106.667" height="21.333"/>
	</g>
</g>
<g>
	<g>
		<rect fill="#4B74FF" x="85.333" y="170.667" width="106.667" height="21.333"/>
	</g>
</g>
<g>
	<g>
		<rect fill="#4B74FF" x="85.333" y="213.333" width="106.667" height="21.333"/>
	</g>
</g>
<g>
	<g>
		<rect fill="#4B74FF" x="85.333" y="256" width="106.667" height="21.333"/>
	</g>
</g>
<g>
	<g>
		<rect fill="#4B74FF" x="277.333" y="42.667" width="106.667" height="21.333"/>
	</g>
</g>
<g>
	<g>
		<rect fill="#4B74FF" x="277.333" y="85.333" width="106.667" height="21.333"/>
	</g>
</g>
<g>
	<g>
		<path fill="#4B74FF" d="M468.093,223.493c-5.58-42.251-41.476-73.907-84.093-74.16c-47.128,0.279-85.106,38.71-84.826,85.837
			c0.252,42.617,31.909,78.514,74.16,84.093v24.032c-12.74,4.504-21.277,16.525-21.333,30.037v64c0,17.673,14.327,32,32,32
			s32-14.327,32-32v-64c-0.056-13.512-8.594-25.533-21.333-30.037v-24.032C441.389,313.094,474.264,270.216,468.093,223.493z
			 M394.667,437.333c0,5.891-4.776,10.667-10.667,10.667c-5.891,0-10.667-4.776-10.667-10.667v-64
			c0-5.891,4.776-10.667,10.667-10.667c5.891,0,10.667,4.776,10.667,10.667V437.333z M384,298.667c-35.346,0-64-28.654-64-64
			s28.654-64,64-64c35.346,0,64,28.654,64,64C447.965,269.998,419.332,298.631,384,298.667z"/>
	</g>
</g>
<g>
	<g>
		<path fill="#4B74FF" d="M341.333,234.667h21.333c0-11.782,9.551-21.333,21.333-21.333V192C360.436,192,341.333,211.103,341.333,234.667z"/>
	</g>
</g>
<g>
</g>
<g>
</g>
<g>
</g>
<g>
</g>
<g>
</g>
<g>
</g>
<g>
</g>
<g>
</g>
<g>
</g>
<g>
</g>
<g>
</g>
<g>
</g>
<g>
</g>
<g>
</g>
<g>
</g>
</svg>
